<mxfile host="app.diagrams.net" agent="Mozilla/5.0 (Windows NT 10.0; Win64; x64) AppleWebKit/537.36 (KHTML, like Gecko) Chrome/132.0.0.0 Safari/537.36" version="26.0.14">
  <diagram name="第 1 页" id="Pe-Xq5TCLp1dsRRwMXim">
    <mxGraphModel dx="1434" dy="738" grid="1" gridSize="10" guides="1" tooltips="1" connect="1" arrows="1" fold="1" page="1" pageScale="1" pageWidth="827" pageHeight="1169" math="0" shadow="0">
      <root>
        <mxCell id="0" />
        <mxCell id="1" parent="0" />
        <mxCell id="N4m3akjZVZ2ySZBwFNGX-3" value="&lt;div style=&quot;text-align: center; font-size: 14px;&quot;&gt;&lt;b&gt;&amp;nbsp; &amp;nbsp; &amp;nbsp; &amp;nbsp; &amp;nbsp; step 2&lt;/b&gt;&lt;/div&gt;&lt;div style=&quot;font-size: 14px;&quot;&gt;&lt;span style=&quot;background-color: initial; font-size: 14px;&quot;&gt;&lt;br&gt;&lt;/span&gt;&lt;/div&gt;&lt;div style=&quot;font-size: 14px;&quot;&gt;&lt;span style=&quot;background-color: initial; font-size: 14px;&quot;&gt;Call Idempotent Debit Api&lt;/span&gt;&lt;/div&gt;" style="whiteSpace=wrap;html=1;fontSize=14;align=left;" parent="1" vertex="1">
          <mxGeometry x="35.31" y="270" width="209.37" height="70" as="geometry" />
        </mxCell>
        <mxCell id="N4m3akjZVZ2ySZBwFNGX-4" value="" style="edgeStyle=none;orthogonalLoop=1;jettySize=auto;html=1;rounded=0;exitX=0.5;exitY=1;exitDx=0;exitDy=0;entryX=0.5;entryY=0;entryDx=0;entryDy=0;fontSize=14;" parent="1" source="N4m3akjZVZ2ySZBwFNGX-3" target="N4m3akjZVZ2ySZBwFNGX-5" edge="1">
          <mxGeometry width="100" relative="1" as="geometry">
            <mxPoint x="150" y="311" as="sourcePoint" />
            <mxPoint x="140" y="370" as="targetPoint" />
            <Array as="points" />
          </mxGeometry>
        </mxCell>
        <mxCell id="LdtOP8FCOL7xw9E4yAfK-9" value="Deduct success" style="edgeLabel;html=1;align=center;verticalAlign=middle;resizable=0;points=[];fontSize=14;" parent="N4m3akjZVZ2ySZBwFNGX-4" vertex="1" connectable="0">
          <mxGeometry x="-0.1139" y="-1" relative="1" as="geometry">
            <mxPoint as="offset" />
          </mxGeometry>
        </mxCell>
        <mxCell id="N4m3akjZVZ2ySZBwFNGX-5" value="&lt;div style=&quot;text-align: center; font-size: 14px;&quot;&gt;&lt;b style=&quot;background-color: initial;&quot;&gt;step 3&lt;/b&gt;&lt;br&gt;&lt;/div&gt;&lt;div style=&quot;font-size: 14px;&quot;&gt;&lt;span style=&quot;background-color: initial; font-size: 14px;&quot;&gt;&lt;br&gt;&lt;/span&gt;&lt;/div&gt;&lt;div style=&quot;font-size: 14px;&quot;&gt;&lt;span style=&quot;background-color: initial; font-size: 14px;&quot;&gt;Update Record&lt;/span&gt;&lt;br style=&quot;font-size: 14px;&quot;&gt;&lt;/div&gt;&lt;div style=&quot;font-size: 14px;&quot;&gt;set Status = &quot;Debit Success&quot;&lt;/div&gt;" style="whiteSpace=wrap;html=1;fontSize=14;align=left;" parent="1" vertex="1">
          <mxGeometry x="39.99" y="410" width="200.01" height="80" as="geometry" />
        </mxCell>
        <mxCell id="LdtOP8FCOL7xw9E4yAfK-2" value="" style="edgeStyle=none;orthogonalLoop=1;jettySize=auto;html=1;rounded=0;exitX=1;exitY=0.5;exitDx=0;exitDy=0;entryX=0;entryY=0.5;entryDx=0;entryDy=0;fontSize=14;" parent="1" source="N4m3akjZVZ2ySZBwFNGX-5" target="BQPz4AaYWSFw1NKrpsAX-31" edge="1">
          <mxGeometry width="100" relative="1" as="geometry">
            <mxPoint x="220" y="439.5" as="sourcePoint" />
            <mxPoint x="320" y="385" as="targetPoint" />
            <Array as="points" />
          </mxGeometry>
        </mxCell>
        <mxCell id="BQPz4AaYWSFw1NKrpsAX-5" value="Update fail" style="edgeLabel;html=1;align=center;verticalAlign=middle;resizable=0;points=[];fontSize=14;" parent="LdtOP8FCOL7xw9E4yAfK-2" vertex="1" connectable="0">
          <mxGeometry x="-0.0154" y="-1" relative="1" as="geometry">
            <mxPoint as="offset" />
          </mxGeometry>
        </mxCell>
        <mxCell id="LdtOP8FCOL7xw9E4yAfK-6" value="" style="edgeStyle=none;orthogonalLoop=1;jettySize=auto;html=1;rounded=0;exitX=1;exitY=0.5;exitDx=0;exitDy=0;entryX=0;entryY=0.5;entryDx=0;entryDy=0;fontSize=14;" parent="1" source="N4m3akjZVZ2ySZBwFNGX-3" target="BQPz4AaYWSFw1NKrpsAX-3" edge="1">
          <mxGeometry width="100" relative="1" as="geometry">
            <mxPoint x="230" y="269.5" as="sourcePoint" />
            <mxPoint x="310" y="275" as="targetPoint" />
            <Array as="points" />
          </mxGeometry>
        </mxCell>
        <mxCell id="BQPz4AaYWSFw1NKrpsAX-6" value="Debit fail" style="edgeLabel;html=1;align=center;verticalAlign=middle;resizable=0;points=[];fontSize=14;" parent="LdtOP8FCOL7xw9E4yAfK-6" vertex="1" connectable="0">
          <mxGeometry x="-0.0154" relative="1" as="geometry">
            <mxPoint as="offset" />
          </mxGeometry>
        </mxCell>
        <mxCell id="LdtOP8FCOL7xw9E4yAfK-13" value="" style="edgeStyle=none;orthogonalLoop=1;jettySize=auto;html=1;rounded=0;exitX=0.5;exitY=1;exitDx=0;exitDy=0;entryX=0.5;entryY=0;entryDx=0;entryDy=0;fontSize=14;" parent="1" source="N4m3akjZVZ2ySZBwFNGX-5" target="LdtOP8FCOL7xw9E4yAfK-15" edge="1">
          <mxGeometry width="100" relative="1" as="geometry">
            <mxPoint x="149.5" y="490" as="sourcePoint" />
            <mxPoint x="149.5" y="569" as="targetPoint" />
            <Array as="points" />
          </mxGeometry>
        </mxCell>
        <mxCell id="LdtOP8FCOL7xw9E4yAfK-14" value="Update succes" style="edgeLabel;html=1;align=center;verticalAlign=middle;resizable=0;points=[];fontSize=14;" parent="LdtOP8FCOL7xw9E4yAfK-13" vertex="1" connectable="0">
          <mxGeometry x="-0.1139" y="-1" relative="1" as="geometry">
            <mxPoint as="offset" />
          </mxGeometry>
        </mxCell>
        <mxCell id="LdtOP8FCOL7xw9E4yAfK-15" value="&lt;div style=&quot;font-size: 14px;&quot;&gt;&lt;b style=&quot;font-size: 14px;&quot;&gt;&lt;u style=&quot;font-size: 14px;&quot;&gt;&lt;i style=&quot;font-size: 14px;&quot;&gt;&lt;font style=&quot;font-size: 14px;&quot; color=&quot;#00cc00&quot;&gt;Return Success&lt;/font&gt;&lt;/i&gt;&lt;/u&gt;&lt;/b&gt;&lt;/div&gt;" style="whiteSpace=wrap;html=1;fontSize=14;" parent="1" vertex="1">
          <mxGeometry x="69.99" y="560" width="140.01" height="50" as="geometry" />
        </mxCell>
        <mxCell id="B3VzkP6dt8ZV4XAjphK2-1" value="&lt;div style=&quot;text-align: center; font-size: 14px;&quot;&gt;&lt;span style=&quot;background-color: initial; font-size: 14px;&quot;&gt;&lt;b&gt;step 1&lt;/b&gt;&lt;/span&gt;&lt;/div&gt;&lt;div style=&quot;font-size: 14px;&quot;&gt;&lt;span style=&quot;background-color: initial; font-size: 14px;&quot;&gt;&lt;br&gt;&lt;/span&gt;&lt;/div&gt;&lt;div style=&quot;font-size: 14px;&quot;&gt;&lt;span style=&quot;background-color: initial; font-size: 14px;&quot;&gt;Insert Record&lt;/span&gt;&lt;/div&gt;&lt;div style=&quot;font-size: 14px;&quot;&gt;set DebitId&lt;/div&gt;&lt;div style=&quot;font-size: 14px;&quot;&gt;set CompensationId&lt;/div&gt;&lt;div style=&quot;font-size: 14px;&quot;&gt;set Status = &quot;In Progress&quot;&lt;/div&gt;" style="whiteSpace=wrap;html=1;fontSize=14;align=left;" parent="1" vertex="1">
          <mxGeometry x="55" y="90" width="175" height="110" as="geometry" />
        </mxCell>
        <mxCell id="B3VzkP6dt8ZV4XAjphK2-2" value="" style="edgeStyle=none;orthogonalLoop=1;jettySize=auto;html=1;rounded=0;exitX=0.5;exitY=1;exitDx=0;exitDy=0;fontSize=14;" parent="1" source="B3VzkP6dt8ZV4XAjphK2-1" target="N4m3akjZVZ2ySZBwFNGX-3" edge="1">
          <mxGeometry width="100" relative="1" as="geometry">
            <mxPoint x="150" y="170" as="sourcePoint" />
            <mxPoint x="150" y="220" as="targetPoint" />
            <Array as="points" />
          </mxGeometry>
        </mxCell>
        <mxCell id="B3VzkP6dt8ZV4XAjphK2-22" value="Insert success" style="edgeLabel;html=1;align=center;verticalAlign=middle;resizable=0;points=[];fontSize=14;" parent="B3VzkP6dt8ZV4XAjphK2-2" vertex="1" connectable="0">
          <mxGeometry x="-0.04" y="1" relative="1" as="geometry">
            <mxPoint as="offset" />
          </mxGeometry>
        </mxCell>
        <mxCell id="B3VzkP6dt8ZV4XAjphK2-15" value="" style="edgeStyle=none;orthogonalLoop=1;jettySize=auto;html=1;rounded=0;exitX=0.5;exitY=1;exitDx=0;exitDy=0;entryX=0.5;entryY=0;entryDx=0;entryDy=0;fontSize=14;" parent="1" source="BQPz4AaYWSFw1NKrpsAX-30" target="BQPz4AaYWSFw1NKrpsAX-9" edge="1">
          <mxGeometry width="100" relative="1" as="geometry">
            <mxPoint x="380" y="410" as="sourcePoint" />
            <mxPoint x="530" y="475" as="targetPoint" />
            <Array as="points" />
          </mxGeometry>
        </mxCell>
        <mxCell id="B3VzkP6dt8ZV4XAjphK2-16" value="Compensate success" style="edgeLabel;html=1;align=center;verticalAlign=middle;resizable=0;points=[];fontSize=14;" parent="B3VzkP6dt8ZV4XAjphK2-15" vertex="1" connectable="0">
          <mxGeometry relative="1" as="geometry">
            <mxPoint as="offset" />
          </mxGeometry>
        </mxCell>
        <mxCell id="B3VzkP6dt8ZV4XAjphK2-21" value="" style="group;fontSize=14;align=left;" parent="1" vertex="1" connectable="0">
          <mxGeometry x="790" y="176" width="590" height="460" as="geometry" />
        </mxCell>
        <mxCell id="BQPz4AaYWSFw1NKrpsAX-26" value="" style="group;fontSize=14;" parent="B3VzkP6dt8ZV4XAjphK2-21" vertex="1" connectable="0">
          <mxGeometry x="-20" y="19" width="610" height="370" as="geometry" />
        </mxCell>
        <mxCell id="B3VzkP6dt8ZV4XAjphK2-20" value="&lt;b style=&quot;&quot;&gt;&lt;font style=&quot;font-size: 20px;&quot;&gt;Cron Job&lt;/font&gt;&lt;/b&gt;" style="rounded=1;whiteSpace=wrap;html=1;verticalAlign=top;fontSize=14;" parent="BQPz4AaYWSFw1NKrpsAX-26" vertex="1">
          <mxGeometry x="10" width="450" height="340" as="geometry" />
        </mxCell>
        <mxCell id="B3VzkP6dt8ZV4XAjphK2-7" value="" style="edgeStyle=none;orthogonalLoop=1;jettySize=auto;html=1;rounded=0;exitX=0.25;exitY=1;exitDx=0;exitDy=0;entryX=0.5;entryY=0;entryDx=0;entryDy=0;fontSize=14;" parent="BQPz4AaYWSFw1NKrpsAX-26" source="BQPz4AaYWSFw1NKrpsAX-19" target="ob1M-A06B3O3idmLBnm6-1" edge="1">
          <mxGeometry width="100" relative="1" as="geometry">
            <mxPoint x="88.74000000000001" y="110" as="sourcePoint" />
            <mxPoint x="68.74000000000001" y="160" as="targetPoint" />
            <Array as="points" />
          </mxGeometry>
        </mxCell>
        <mxCell id="B3VzkP6dt8ZV4XAjphK2-11" value="DebitId is exist" style="edgeLabel;html=1;align=center;verticalAlign=middle;resizable=0;points=[];fontSize=14;" parent="B3VzkP6dt8ZV4XAjphK2-7" vertex="1" connectable="0">
          <mxGeometry x="-0.0857" relative="1" as="geometry">
            <mxPoint as="offset" />
          </mxGeometry>
        </mxCell>
        <mxCell id="B3VzkP6dt8ZV4XAjphK2-12" value="" style="edgeStyle=none;orthogonalLoop=1;jettySize=auto;html=1;rounded=0;exitX=0.75;exitY=1;exitDx=0;exitDy=0;entryX=0.5;entryY=0;entryDx=0;entryDy=0;fontSize=14;" parent="BQPz4AaYWSFw1NKrpsAX-26" source="BQPz4AaYWSFw1NKrpsAX-19" target="BQPz4AaYWSFw1NKrpsAX-21" edge="1">
          <mxGeometry width="100" relative="1" as="geometry">
            <mxPoint x="158.74" y="110" as="sourcePoint" />
            <mxPoint x="178.74" y="160" as="targetPoint" />
            <Array as="points" />
          </mxGeometry>
        </mxCell>
        <mxCell id="B3VzkP6dt8ZV4XAjphK2-13" value="DebitId isn&#39;t exist" style="edgeLabel;html=1;align=center;verticalAlign=middle;resizable=0;points=[];fontSize=14;" parent="B3VzkP6dt8ZV4XAjphK2-12" vertex="1" connectable="0">
          <mxGeometry x="0.0123" y="1" relative="1" as="geometry">
            <mxPoint as="offset" />
          </mxGeometry>
        </mxCell>
        <mxCell id="BQPz4AaYWSFw1NKrpsAX-19" value="&lt;div style=&quot;font-size: 14px;&quot;&gt;&lt;span style=&quot;background-color: initial; font-size: 14px;&quot;&gt;Select all&amp;nbsp;&lt;/span&gt;&lt;span style=&quot;background-color: initial;&quot;&gt;Status ==&lt;/span&gt;&lt;span style=&quot;text-align: left; background-color: initial;&quot;&gt;&amp;nbsp;&lt;/span&gt;&lt;span style=&quot;text-align: left; background-color: initial;&quot;&gt;&quot;In Progress&quot;&lt;/span&gt;&lt;/div&gt;" style="whiteSpace=wrap;html=1;fontSize=14;" parent="BQPz4AaYWSFw1NKrpsAX-26" vertex="1">
          <mxGeometry x="128.74" y="50" width="235" height="50" as="geometry" />
        </mxCell>
        <mxCell id="BQPz4AaYWSFw1NKrpsAX-21" value="Delete Record" style="whiteSpace=wrap;html=1;fontSize=14;" parent="BQPz4AaYWSFw1NKrpsAX-26" vertex="1">
          <mxGeometry x="284.37" y="150" width="120" height="50" as="geometry" />
        </mxCell>
        <mxCell id="ob1M-A06B3O3idmLBnm6-1" value="&lt;div style=&quot;font-size: 14px;&quot;&gt;&lt;span style=&quot;background-color: initial; font-size: 14px;&quot;&gt;Call Compensation Api&lt;/span&gt;&lt;br style=&quot;font-size: 14px;&quot;&gt;&lt;/div&gt;" style="whiteSpace=wrap;html=1;fontSize=14;" parent="BQPz4AaYWSFw1NKrpsAX-26" vertex="1">
          <mxGeometry x="64.37" y="150" width="170" height="50" as="geometry" />
        </mxCell>
        <mxCell id="ob1M-A06B3O3idmLBnm6-2" value="&lt;div style=&quot;font-size: 14px;&quot;&gt;&lt;div&gt;&lt;span style=&quot;background-color: initial;&quot;&gt;Update Record&lt;/span&gt;&lt;br&gt;&lt;/div&gt;&lt;div style=&quot;&quot;&gt;set Status = &quot;&lt;span style=&quot;text-align: center; text-wrap: nowrap; background-color: rgb(255, 255, 255);&quot;&gt;Compensate success&lt;/span&gt;&quot;&lt;/div&gt;&lt;/div&gt;" style="whiteSpace=wrap;html=1;fontSize=14;align=left;" parent="BQPz4AaYWSFw1NKrpsAX-26" vertex="1">
          <mxGeometry x="29.999999999999993" y="260" width="238.75" height="60" as="geometry" />
        </mxCell>
        <mxCell id="ob1M-A06B3O3idmLBnm6-3" value="" style="edgeStyle=none;orthogonalLoop=1;jettySize=auto;html=1;rounded=0;exitX=0.5;exitY=1;exitDx=0;exitDy=0;entryX=0.5;entryY=0;entryDx=0;entryDy=0;fontSize=14;" parent="BQPz4AaYWSFw1NKrpsAX-26" source="ob1M-A06B3O3idmLBnm6-1" target="ob1M-A06B3O3idmLBnm6-2" edge="1">
          <mxGeometry width="100" relative="1" as="geometry">
            <mxPoint x="-166.26" y="285" as="sourcePoint" />
            <mxPoint x="-166.26" y="365" as="targetPoint" />
            <Array as="points" />
          </mxGeometry>
        </mxCell>
        <mxCell id="ob1M-A06B3O3idmLBnm6-4" value="Compensate success" style="edgeLabel;html=1;align=center;verticalAlign=middle;resizable=0;points=[];fontSize=14;" parent="ob1M-A06B3O3idmLBnm6-3" vertex="1" connectable="0">
          <mxGeometry relative="1" as="geometry">
            <mxPoint as="offset" />
          </mxGeometry>
        </mxCell>
        <mxCell id="BQPz4AaYWSFw1NKrpsAX-3" value="&lt;div style=&quot;font-size: 14px;&quot;&gt;&lt;b&gt;&lt;u&gt;&lt;font color=&quot;#ff0000&quot;&gt;&lt;i&gt;Retrun &quot;Fail&quot;&lt;/i&gt;&lt;/font&gt;&lt;/u&gt;&lt;/b&gt;&lt;br&gt;&lt;/div&gt;" style="whiteSpace=wrap;html=1;fontSize=14;" parent="1" vertex="1">
          <mxGeometry x="380" y="280" width="120" height="50" as="geometry" />
        </mxCell>
        <mxCell id="BQPz4AaYWSFw1NKrpsAX-9" value="&lt;div style=&quot;font-size: 14px;&quot;&gt;&lt;div&gt;&lt;span style=&quot;background-color: initial;&quot;&gt;Update Record&lt;/span&gt;&lt;br&gt;&lt;/div&gt;&lt;div style=&quot;&quot;&gt;set Status = &quot;&lt;span style=&quot;text-align: center; text-wrap: nowrap; background-color: rgb(255, 255, 255);&quot;&gt;Compensate success&lt;/span&gt;&quot;&lt;/div&gt;&lt;/div&gt;" style="whiteSpace=wrap;html=1;fontSize=14;align=left;" parent="1" vertex="1">
          <mxGeometry x="525.63" y="555" width="238.75" height="60" as="geometry" />
        </mxCell>
        <mxCell id="BQPz4AaYWSFw1NKrpsAX-30" value="&lt;div style=&quot;font-size: 14px;&quot;&gt;&lt;span style=&quot;background-color: initial; font-size: 14px;&quot;&gt;Call Compensation Api&lt;/span&gt;&lt;br style=&quot;font-size: 14px;&quot;&gt;&lt;/div&gt;" style="whiteSpace=wrap;html=1;fontSize=14;" parent="1" vertex="1">
          <mxGeometry x="560" y="425" width="170" height="50" as="geometry" />
        </mxCell>
        <mxCell id="BQPz4AaYWSFw1NKrpsAX-31" value="&lt;div style=&quot;font-size: 14px;&quot;&gt;&lt;b&gt;&lt;u&gt;&lt;font color=&quot;#ff0000&quot;&gt;&lt;i&gt;Retrun &quot;Fail&quot;&lt;/i&gt;&lt;/font&gt;&lt;/u&gt;&lt;/b&gt;&lt;br&gt;&lt;/div&gt;" style="whiteSpace=wrap;html=1;fontSize=14;" parent="1" vertex="1">
          <mxGeometry x="380" y="425" width="120" height="50" as="geometry" />
        </mxCell>
        <mxCell id="BQPz4AaYWSFw1NKrpsAX-32" value="&lt;div style=&quot;font-size: 14px;&quot;&gt;&lt;b style=&quot;font-size: 14px;&quot;&gt;&lt;u style=&quot;font-size: 14px;&quot;&gt;&lt;font style=&quot;font-size: 14px;&quot; color=&quot;#ff0000&quot;&gt;&lt;i style=&quot;font-size: 14px;&quot;&gt;Retrun &quot;Fail&quot;&lt;/i&gt;&lt;/font&gt;&lt;/u&gt;&lt;/b&gt;&lt;/div&gt;" style="whiteSpace=wrap;html=1;fontSize=14;" parent="1" vertex="1">
          <mxGeometry x="380" y="120" width="120" height="50" as="geometry" />
        </mxCell>
        <mxCell id="BQPz4AaYWSFw1NKrpsAX-33" value="" style="edgeStyle=none;orthogonalLoop=1;jettySize=auto;html=1;rounded=0;exitX=1;exitY=0.5;exitDx=0;exitDy=0;entryX=0;entryY=0.5;entryDx=0;entryDy=0;fontSize=14;" parent="1" source="B3VzkP6dt8ZV4XAjphK2-1" target="BQPz4AaYWSFw1NKrpsAX-32" edge="1">
          <mxGeometry width="100" relative="1" as="geometry">
            <mxPoint x="210" y="285" as="sourcePoint" />
            <mxPoint x="340" y="285" as="targetPoint" />
            <Array as="points" />
          </mxGeometry>
        </mxCell>
        <mxCell id="BQPz4AaYWSFw1NKrpsAX-34" value="Insert fail" style="edgeLabel;html=1;align=center;verticalAlign=middle;resizable=0;points=[];fontSize=14;" parent="BQPz4AaYWSFw1NKrpsAX-33" vertex="1" connectable="0">
          <mxGeometry x="-0.0154" relative="1" as="geometry">
            <mxPoint as="offset" />
          </mxGeometry>
        </mxCell>
        <mxCell id="BQPz4AaYWSFw1NKrpsAX-35" value="" style="edgeStyle=none;orthogonalLoop=1;jettySize=auto;html=1;rounded=0;exitX=1;exitY=0.5;exitDx=0;exitDy=0;entryX=0;entryY=0.5;entryDx=0;entryDy=0;" parent="1" source="BQPz4AaYWSFw1NKrpsAX-31" target="BQPz4AaYWSFw1NKrpsAX-30" edge="1">
          <mxGeometry width="100" relative="1" as="geometry">
            <mxPoint x="540" y="600" as="sourcePoint" />
            <mxPoint x="640" y="600" as="targetPoint" />
            <Array as="points" />
          </mxGeometry>
        </mxCell>
        <mxCell id="BQPz4AaYWSFw1NKrpsAX-36" value="" style="edgeStyle=none;orthogonalLoop=1;jettySize=auto;html=1;rounded=0;exitX=1;exitY=0.5;exitDx=0;exitDy=0;entryX=0;entryY=0.75;entryDx=0;entryDy=0;" parent="1" source="BQPz4AaYWSFw1NKrpsAX-30" target="B3VzkP6dt8ZV4XAjphK2-20" edge="1">
          <mxGeometry width="100" relative="1" as="geometry">
            <mxPoint x="380" y="540" as="sourcePoint" />
            <mxPoint x="800" y="450" as="targetPoint" />
            <Array as="points" />
          </mxGeometry>
        </mxCell>
        <mxCell id="BQPz4AaYWSFw1NKrpsAX-37" value="" style="edgeStyle=none;orthogonalLoop=1;jettySize=auto;html=1;rounded=0;exitX=1;exitY=0.5;exitDx=0;exitDy=0;entryX=0.002;entryY=0.326;entryDx=0;entryDy=0;entryPerimeter=0;" parent="1" source="BQPz4AaYWSFw1NKrpsAX-3" target="B3VzkP6dt8ZV4XAjphK2-20" edge="1">
          <mxGeometry width="100" relative="1" as="geometry">
            <mxPoint x="520" y="280" as="sourcePoint" />
            <mxPoint x="770" y="310" as="targetPoint" />
            <Array as="points" />
          </mxGeometry>
        </mxCell>
      </root>
    </mxGraphModel>
  </diagram>
</mxfile>
